<svg width="125" height="124" viewBox="0 0 125 124" fill="none" xmlns="http://www.w3.org/2000/svg">
<mask id="mask0_2002_10059" style="mask-type:alpha" maskUnits="userSpaceOnUse" x="0" y="0" width="125" height="124">
<rect x="0.37793" width="123.744" height="123.744" fill="#D9D9D9"/>
</mask>
<g mask="url(#mask0_2002_10059)">
<path d="M108.242 80.276C106.595 79.1736 104.921 78.1161 103.229 77.0947C104.079 77.0812 104.538 77.0767 104.538 77.0767L120.652 65.8047L119.226 60.0855L65.9302 47.6301L46.4597 51.7069C43.5619 50.735 40.6415 49.808 37.7031 48.9396C35.7547 48.3951 31.8984 47.2522 27.5336 46.2262C27.4257 44.9708 26.3772 43.9853 25.0948 43.9853C24.1723 43.9853 23.3714 44.4938 22.9529 45.2453C15.8252 43.8908 8.63908 43.4183 6.82117 46.5907C5.20125 49.7585 9.56154 54.2403 14.9703 58.3036L5.61523 60.261C5.61523 60.261 14.9928 78.2241 15.2718 78.3186C15.3887 78.3591 31.5294 78.1431 50.0505 77.8776C66.6772 85.4058 84.0643 91.269 102.005 94.6663C105.906 95.2108 115.797 96.9747 118.074 92.8844C120.252 88.3846 111.414 82.5484 108.242 80.2715V80.276ZM107.868 61.6334L105.245 62.1104L77.9626 52.9399L107.868 61.6334ZM92.4249 63.9193L89.9546 64.0768L76.3472 57.0212L92.4204 63.9193H92.4249ZM48.2191 57.9796L35.8627 63.5683L34.2293 62.9744L48.2191 57.9751V57.9796ZM27.8531 60.0675L26.2737 59.577L46.0772 54.6273L27.8531 60.0675ZM9.52104 46.7167C12.5224 45.6187 17.5396 45.9787 22.6784 46.8427C22.8719 48.0036 23.8753 48.8856 25.0903 48.8856C25.9767 48.8856 26.7507 48.4131 27.1827 47.7066C31.12 48.5481 34.8053 49.5335 37.3342 50.204C39.5435 50.8565 41.7529 51.5314 43.9578 52.2289L19.1191 57.4307C20.46 58.2271 21.8234 58.9876 23.1779 59.7435C28.8116 62.7854 34.6658 65.4358 40.583 67.9061L39.755 69.6745C32.1459 66.0477 24.7303 62.0339 17.7196 57.3767C15.9107 56.1617 5.08426 48.6021 9.52554 46.7167H9.52104ZM116.022 91.7999C114.082 94.1398 105.474 92.6189 102.446 92.1059C87.4122 89.1811 72.9004 83.8263 58.7666 77.9676C58.6001 77.9001 58.4336 77.8326 58.2671 77.7651C75.0378 77.5222 92.1144 77.2657 100.016 77.1487C102.428 78.6561 104.808 80.2175 107.148 81.8419C109.295 83.4124 116.953 89.0596 116.022 91.8045V91.7999Z" fill="#032C78"/>
<path d="M69.6653 19.2275L67.2039 39.9895C67.2039 39.9895 63.4376 46.1812 54.3076 42.4014C45.056 38.5766 48.3904 30.4905 51.1442 27.7636C53.9251 25.0097 63.2801 18.7056 69.6698 19.2275H69.6653Z" fill="#043FAD"/>
<path d="M76.4736 34.4458C73.8458 37.3301 64.4817 44.0213 56.8411 44.0213C56.3956 44.0213 55.9636 43.9988 55.5317 43.9538C49.9204 43.3418 47.1621 40.534 46.0236 38.9411L45.5557 39.2335L57.7771 76.5817H68.167L82.2873 31.4129C81.1444 32.0204 77.7111 33.0823 76.4691 34.4458H76.4736Z" fill="#29D4FF"/>
<path d="M71.2899 48.8136L67.8926 78.1521L79.052 42.2349C76.5591 45.1013 73.2248 47.2926 71.2899 48.8091V48.8136Z" fill="white"/>
<path d="M65.7732 51.0095L65.4492 69.751L67.2896 69.3506L68.2076 49.943L65.7732 51.0095Z" fill="white"/>
<path d="M56.9036 47.6751L59.4415 77.6706H57.0386L46.0771 45.4027L56.9036 47.6751Z" fill="#056FEC"/>
<path d="M84.7755 25.9232C84.7755 19.2635 77.3239 14.2328 69.6608 12.9729C66.6999 12.4869 58.9378 11.7759 50.1632 16.0777C48.5568 16.8652 48.9123 18.4311 49.1688 19.502C49.5333 21.0275 50.0688 23.6913 50.0688 23.6913C46.5274 26.5802 40.4977 32.6369 42.4011 39.2695V39.274C42.4866 39.5755 42.5991 39.8815 42.7206 40.1875L56.148 78.8316H69.8993L83.8576 31.134C84.4605 29.37 84.7755 27.6106 84.7755 25.9187V25.9232ZM68.1714 76.5817H57.7814L47.8954 46.3657C51.2837 48.6156 55.932 49.7045 61.5252 48.5886C69.6158 46.9687 75.893 42.9099 79.8753 38.0861L68.1759 76.5817H68.1714Z" fill="#032C78"/>
<path d="M120.895 60.783C119.95 60.1935 118.825 59.8965 117.556 59.8965C117.556 59.8965 115.604 60.054 114.465 60.3825C112.337 60.9945 110.168 61.5794 108.03 62.1149C106.843 62.4119 103.364 63.5278 102.437 63.5278C102.091 63.5278 101.731 63.5683 101.362 63.6448C100.142 63.9013 99.1389 64.4863 98.3874 65.3952C97.6315 66.3042 94.1846 67.0917 93.5277 66.5382C92.7897 65.9172 91.8537 65.5887 90.8233 65.5887C90.5668 65.5887 90.3013 65.6067 90.0358 65.6472C88.8929 65.8137 87.8984 66.3042 87.1425 67.0692C86.5125 66.6912 85.752 66.4977 84.8791 66.4977C84.6271 66.4977 84.3616 66.5157 84.0871 66.5472C80.1003 67.0017 76.046 67.3301 72.0367 67.5281C69.8183 67.6406 68.5989 68.9456 68.3964 69.2156C66.9205 68.2436 64.9856 67.7666 62.5107 67.7666C59.6038 67.7666 55.0771 67.6001 51.8642 67.5146C45.0471 67.3256 38.8599 66.8217 33.0147 65.8677C20.9463 63.8968 15.8975 62.0654 11.1817 60.504C8.94086 59.7615 6.99695 60.0225 6.43898 60.108C4.79656 60.3555 3.46013 61.0305 2.46568 62.1059C1.43073 63.2308 0.931254 64.6528 0.904255 66.3357C0.868257 68.7881 2.0652 70.9435 3.68512 72.3159C3.01915 72.3654 2.20919 72.7884 1.79071 73.1709C0.872757 74.0168 0.40478 76.0597 1.31823 77.9316C2.69967 80.7665 5.70552 82.8184 10.9118 84.1593C14.3091 85.0323 17.6209 83.3224 20.0418 80.7845C20.6628 80.132 22.1702 78.6111 22.1702 78.6111L21.9407 83.1829C21.8372 85.2303 23.1467 87.0887 25.1086 87.6691C25.7745 87.8671 26.499 88.0606 27.4079 88.2451C26.832 89.91 27.0435 92.1734 28.6049 93.4333C30.1258 94.6618 32.5602 95.0083 33.3071 95.1208V105.029C33.3071 107.878 35.2465 109.565 37.2265 109.853C38.0139 109.966 39.9983 110.24 41.4067 108.341L45.3485 103.018L45.479 107.779C45.524 109.511 46.8605 110.937 48.5884 111.086C51.7427 111.356 55.491 111.567 60.1888 111.585C61.7412 111.594 62.3667 110.015 62.3667 110.015C62.3667 110.015 62.7447 111.59 64.7336 111.59C69.3324 111.59 72.6982 111.455 76.2665 111.261C77.4275 111.198 78.0214 110.195 78.2149 109.498C78.2149 109.498 79.1869 111.171 81.7157 111.014C83.7991 110.883 85.1536 108.652 85.1536 107.428C85.1536 105.88 85.1086 104.215 85.1086 104.215C85.1086 104.215 87.9029 107.14 89.2664 108.553C90.4543 109.786 92.3892 109.898 93.6357 109.655C95.4356 109.309 97.645 108.026 97.645 103.702V90.576C97.645 89.2576 97.186 88.3486 96.6775 87.7411C100.858 86.9312 103.364 84.4653 104.17 82.7779C104.17 82.7779 106.46 84.8253 108.669 84.8073C110.267 84.7938 111.59 83.7318 112.233 82.9849C113.012 82.0849 113.367 80.9105 113.367 79.682V77.0407C114.155 76.8247 114.938 76.6042 115.707 76.3837C118.11 75.6907 120.036 74.4488 121.444 72.6849C122.871 70.8985 123.591 68.8106 123.591 66.4797C123.591 63.1769 122.115 61.5659 120.877 60.7965L120.895 60.783Z" fill="#032C78"/>
<path d="M121.17 65.3457C121.012 63.9688 120.895 62.8079 119.532 62.4884C119.554 62.4929 119.316 62.3219 119.338 62.3264L117.16 61.6154C115.419 61.143 113.659 61.8449 111.981 62.2904C110.928 62.5829 109.871 62.8619 108.818 63.1364C107.603 63.4828 106.073 63.5773 105.416 64.8238C105.191 65.2288 105.092 65.6877 105.078 66.1557C105.051 67.2582 105.029 68.3606 105.002 69.463C104.952 71.6589 104.903 73.8548 104.853 76.0462C104.831 77.1397 104.804 78.2331 104.781 79.3221C104.768 79.871 104.889 80.438 105.326 80.789L107.13 82.2424C107.076 82.1974 107.036 82.1434 106.991 82.0939C107.949 83.1019 109.83 82.3324 110.595 81.4055C111.324 80.6 111.293 79.484 111.306 78.4626C111.333 77.3782 111.131 76.2487 111.158 75.1643C113.394 74.5073 115.828 73.9178 117.831 72.6849C120.477 71.101 121.629 68.3966 121.174 65.3412L121.17 65.3457ZM106.59 81.2075C106.568 81.0545 106.559 80.8925 106.563 80.717C106.563 80.8925 106.568 81.059 106.59 81.2075ZM106.694 81.6214C106.662 81.5404 106.644 81.4415 106.626 81.347C106.649 81.4415 106.667 81.5404 106.698 81.6259C106.698 81.6259 106.698 81.6259 106.698 81.6214H106.694ZM106.874 81.9679C106.833 81.9094 106.802 81.8374 106.77 81.7654C106.806 81.8374 106.838 81.9094 106.883 81.9724C106.883 81.9724 106.878 81.9679 106.874 81.9634V81.9679ZM115.207 67.4381C114.951 69.2336 112.705 69.814 111.203 70.1875C111.225 69.2291 111.14 68.1176 111.162 67.1637C112.363 66.8532 113.938 66.4032 115.14 66.0792C115.234 66.4392 115.275 67.0647 115.207 67.4426V67.4381ZM103.787 66.8892C103.625 66.4662 103.742 66.4302 103.31 66.2952C103.382 66.3132 103.332 66.0252 103.395 66.0567C103.301 66.0027 101.65 65.1388 101.596 65.1298C99.9396 64.6663 98.0722 66.0342 98.1172 67.7801C98.0677 70.4935 98.0137 73.2024 97.9642 75.9112C97.9462 77.2207 97.5817 78.5706 96.5963 79.4615C95.6378 80.2985 94.1214 80.7125 92.9065 80.2535C92.4565 78.9981 92.6995 77.5716 92.6725 76.2487C92.695 74.8403 92.7175 73.4318 92.74 72.0189C92.641 70.7635 93.2304 68.9951 91.984 68.1806C92.02 68.2031 92.056 68.2211 92.0875 68.2436C91.9165 68.1221 90.8096 67.2672 90.6431 67.1997C89.6666 66.7677 88.3887 67.1007 87.6777 67.8791C87.2547 68.3426 87.0477 68.9501 87.0432 69.58C87.0252 70.9075 87.0072 72.2349 86.9892 73.5623C87.0792 76.3612 86.3818 79.5515 88.0647 81.9859L89.1446 83.4888C89.1311 83.4663 89.1176 83.4438 89.1041 83.4258C91.732 87.2957 99.3816 85.4148 101.942 82.2649C104.012 79.997 104.214 76.9012 104.183 73.9583C104.214 72.5769 103.904 71.2405 103.935 69.859C103.899 68.8736 104.084 67.8386 103.787 66.8892ZM88.0332 80.2445C88.0242 80.141 88.0197 80.0285 88.0107 79.925C88.0242 80.114 88.0422 80.303 88.0647 80.483C88.0557 80.402 88.0422 80.33 88.0332 80.249V80.2445ZM88.2447 81.4864C88.2447 81.4864 88.2402 81.4595 88.2357 81.4415C88.2897 81.6664 88.3572 81.8869 88.4292 82.0939C88.3617 81.8959 88.2987 81.6979 88.2447 81.4819V81.4864ZM88.6182 82.5709C88.5732 82.4674 88.5327 82.3594 88.4922 82.2514C88.5507 82.4089 88.6137 82.5574 88.6857 82.7014C88.6632 82.6564 88.6407 82.6159 88.6182 82.5664V82.5709ZM90.9265 67.8971C91.048 67.8971 91.1605 67.9016 91.273 67.9196C91.165 67.9016 91.048 67.8971 90.9265 67.8971ZM91.3765 67.9466C91.4485 67.9601 91.5205 67.9691 91.588 67.9961C91.5205 67.9736 91.4485 67.9601 91.3765 67.9466ZM91.7005 68.0411C91.759 68.0636 91.8175 68.0816 91.8715 68.1176C91.8175 68.0906 91.759 68.0636 91.7005 68.0411ZM86.5258 69.643C86.4403 69.4225 86.3053 69.2381 86.1118 69.1031C86.1568 69.1346 86.2018 69.1706 86.2423 69.2111C86.1793 69.1436 85.1848 68.1851 85.1443 68.1671C84.6764 67.8476 84.0599 67.8521 83.5109 67.9151C82.5345 68.0276 81.558 68.1266 80.5771 68.2256C77.6432 68.5091 74.7094 68.7251 71.7665 68.8691C70.1691 68.8781 69.2556 69.868 69.6561 71.4609L69.9711 72.5319C69.9486 72.4599 69.9306 72.3789 69.9216 72.3024C70.0386 73.3913 71.195 73.7513 72.149 73.6568C73.1929 73.6028 74.2324 73.5443 75.2763 73.4768C75.2583 75.9832 75.2403 78.4896 75.2268 80.9915C75.2808 82.2064 75.0603 83.4618 75.3213 84.6498L75.8703 86.2607C75.8613 86.2382 75.8568 86.2112 75.8478 86.1887C76.4688 88.2316 79.7446 87.8356 80.3971 85.9997C80.7571 84.8028 80.5141 83.3314 80.5996 82.0624C80.6266 79.0566 80.6581 76.0507 80.6851 73.0404C82.0845 72.8919 83.5154 72.8064 84.9013 72.5724C86.3188 72.3339 86.9757 70.9345 86.5258 69.634V69.643ZM69.9036 72.2079C69.8901 72.0864 69.8811 71.9649 69.8811 71.8389C69.8811 71.9964 69.8901 72.1404 69.9126 72.2754C69.9126 72.2529 69.9036 72.2304 69.9036 72.2079ZM75.7758 85.8782C75.7533 85.7342 75.7443 85.5902 75.7488 85.4463C75.7488 85.6127 75.7623 85.7702 75.7848 85.9232C75.7848 85.9097 75.7803 85.8962 75.7758 85.8827V85.8782ZM75.8163 86.0762C75.8073 86.0357 75.8028 85.9952 75.7938 85.9547C75.8073 86.0222 75.8208 86.0852 75.8388 86.1482C75.8343 86.1257 75.8253 86.1032 75.8163 86.0762ZM52.143 83.7813C50.5276 80.1545 48.6511 76.6267 46.9592 73.0179C46.4013 71.8614 45.8388 70.696 45.2763 69.5305C45.0603 69.0716 44.7183 68.6891 44.2909 68.4146C43.2784 67.7531 41.744 67.6406 40.8485 68.5541L39.9486 69.5035C39.9666 69.4855 39.9801 69.472 39.9981 69.454C39.8361 69.6115 39.7056 69.7915 39.6021 69.9985C39.0441 71.092 38.4817 72.1809 37.9237 73.2699C36.2678 76.4962 34.6028 79.7135 32.9334 82.9219C32.1505 84.3798 33.5994 85.9772 35.0438 86.1662C35.7998 86.3012 36.6007 85.9277 36.9112 85.2123C36.8752 85.2888 38.0092 83.5923 38.3107 82.8319C41.024 83.1739 43.7419 83.4529 46.4688 83.6778C46.7657 84.3438 47.0627 85.0053 47.3597 85.6712C47.6252 86.2697 47.8682 86.9312 48.4397 87.3002C49.5331 88.1011 51.4005 87.5971 51.729 86.2247C51.729 86.2427 51.72 86.2607 51.7155 86.2787L52.134 84.6633C52.2105 84.3708 52.2015 84.0648 52.134 83.7723L52.143 83.7813ZM40.4166 69.1436C40.4751 69.1121 40.5335 69.0806 40.5965 69.0536C40.4975 69.0986 40.4031 69.1526 40.3131 69.2111C40.3446 69.1886 40.3806 69.1661 40.4166 69.1481V69.1436ZM40.0926 69.373C40.1511 69.3236 40.2096 69.2741 40.2771 69.2336C40.1916 69.2921 40.1151 69.355 40.0431 69.4225C40.0611 69.4045 40.0746 69.3865 40.0971 69.373H40.0926ZM43.0399 78.4266C42.2075 78.3411 41.3795 78.2466 40.547 78.1521C40.547 78.1521 41.726 75.6502 42.311 74.3948C42.9274 75.7762 43.5439 77.1622 44.1649 78.5436C43.7914 78.5076 43.4134 78.4671 43.0399 78.4311V78.4266ZM51.7695 86.0627C51.765 86.1167 51.756 86.1662 51.7425 86.2157C51.756 86.1527 51.765 86.0942 51.774 86.0267C51.774 86.0357 51.774 86.0492 51.774 86.0582L51.7695 86.0627ZM51.7785 85.9457C51.7785 85.9682 51.7785 85.9952 51.774 86.0177C51.7785 85.9547 51.783 85.8917 51.783 85.8242C51.783 85.8647 51.783 85.9052 51.783 85.9457H51.7785ZM32.9784 71.6184C33.4689 71.6364 34.0269 71.5734 34.3554 71.1775C34.3284 71.2045 34.3104 71.2405 34.2834 71.2675L35.4083 70.246C35.9393 69.733 35.8943 68.8286 35.6783 68.1761C35.3678 67.3257 34.4633 66.9792 33.6264 66.8532C31.6735 66.5517 29.7296 66.2142 27.7857 65.8452C25.8373 65.4762 23.8979 65.0803 21.963 64.6528C21.6255 64.5808 21.279 64.5268 20.937 64.5538C20.5365 64.5493 19.0786 65.3188 18.7051 65.4537C18.7141 65.4537 18.7231 65.4492 18.7321 65.4447C18.6556 65.4762 18.5881 65.5077 18.5296 65.5662C16.2887 63.1319 12.4774 61.5479 9.1701 61.6514C8.31065 61.6649 6.41174 62.3534 5.73227 62.6054C5.84027 62.5649 5.83577 62.8439 5.87177 62.7359C5.66478 63.3523 2.65893 68.9816 5.77727 71.146C6.98321 72.1179 8.43664 72.9414 9.85407 73.6433C10.682 74.0393 11.357 74.5613 12.0815 75.0293C12.6169 75.3938 13.0309 75.8392 13.1659 76.4737C11.249 76.1587 9.45359 75.2678 7.99116 73.9898C7.42419 73.5083 6.68173 72.8199 5.88977 73.1439L3.57688 74.2553C3.58588 74.2508 3.57688 74.3498 3.58588 74.3453C2.34394 75.0068 3.30689 76.7212 4.17085 77.5086C6.83022 80.1365 12.9769 83.1469 16.3922 80.681C16.3832 80.6855 16.3742 80.6945 16.3697 80.699C16.7972 80.3525 18.4126 79.2276 18.7321 78.8181C20.1811 77.0632 19.6726 74.2778 18.1742 72.7029C17.1122 71.5554 15.7668 70.7365 14.3718 69.9895C13.0894 69.1886 9.39059 68.0726 9.74607 66.2277C11.1185 66.4932 12.4459 67.0782 13.5574 67.9241C14.4258 68.5091 15.4788 69.8815 16.6082 69.2066C16.5632 69.2381 16.5182 69.2651 16.4732 69.2921C16.5002 69.2741 18.7546 68.1176 18.6556 68.1266C19.2676 69.0131 20.442 69.1751 21.423 69.3955C22.332 69.5935 23.3129 69.7555 24.2309 69.94C24.3119 73.9538 24.1634 78.0846 24.2444 82.0984C24.2309 83.4753 25.3468 84.6363 26.6832 84.8433C27.3762 84.9918 28.2042 84.8838 28.6586 84.2898C28.6451 84.3078 28.6361 84.3258 28.6226 84.3393L29.9681 82.8004C30.2786 82.4494 30.3776 81.9769 30.3686 81.5089C30.3101 78.0711 30.2516 74.6333 30.1931 71.191C31.1245 71.3305 32.0515 71.5284 32.9874 71.6139L32.9784 71.6184ZM34.7108 69.9805C34.7108 70.1335 34.7108 70.2775 34.6838 70.4125C34.7018 70.2775 34.7108 70.138 34.7108 69.9805ZM34.6568 70.534C34.6388 70.6195 34.6298 70.705 34.5938 70.777C34.6208 70.7005 34.6388 70.6195 34.6568 70.534ZM34.5398 70.8985C34.5128 70.9615 34.4903 71.029 34.4408 71.0785C34.4768 71.0245 34.5083 70.9615 34.5398 70.8985ZM7.68518 66.6957C7.68518 66.6957 7.68518 66.6957 7.68518 66.6912C7.69868 66.6732 7.71217 66.6552 7.73017 66.6417C7.71667 66.6597 7.69868 66.6777 7.68518 66.7002V66.6957ZM7.91916 66.4572C7.91916 66.4572 7.92366 66.4572 7.92816 66.4527C7.94616 66.4392 7.96866 66.4257 7.99116 66.4167C7.96866 66.4302 7.94166 66.4437 7.91916 66.4617V66.4572ZM16.9097 80.1995C16.8377 80.285 16.7612 80.3615 16.6802 80.438C16.7612 80.3615 16.8377 80.2805 16.9097 80.1995ZM16.6622 80.456C16.5857 80.528 16.5047 80.6 16.4192 80.663C16.5047 80.5955 16.5812 80.528 16.6622 80.456ZM18.7816 65.4267C18.8176 65.4087 18.8581 65.3952 18.8986 65.3907C18.8581 65.3997 18.8176 65.4132 18.7816 65.4267ZM18.9661 65.3727C19.0111 65.3592 19.0561 65.3548 19.1011 65.3503C19.0561 65.3548 19.0066 65.3637 18.9661 65.3727ZM69.3636 86.0987C69.1656 85.2438 69.1611 84.1413 68.6167 83.4079C67.8112 82.3819 67.1632 81.185 66.1913 80.312C68.5267 79.1106 69.3771 76.1632 68.7021 73.7423C68.7156 73.8008 68.7337 73.8548 68.7472 73.9133L68.4817 72.7884C68.1262 71.0605 66.7133 69.8275 65.0213 69.418C63.6399 69.0311 62.083 69.1031 60.6251 69.0896C59.0456 69.0761 57.4707 69.0446 55.8958 68.9861C55.0678 68.9231 54.1589 69.2876 53.8979 70.129L53.5469 71.146C53.5469 71.146 53.5469 71.137 53.5514 71.1325C53.4524 71.4249 53.4119 71.7264 53.4164 72.0504C53.4164 73.1934 53.4254 74.3363 53.4299 75.4792C53.4389 77.7561 53.4479 80.0285 53.4614 82.3009C53.4659 83.4348 53.4749 84.5643 53.4794 85.6937C53.4074 87.0257 54.5234 88.1191 55.8508 88.0831C57.1737 88.2091 57.8802 87.1787 57.7992 85.8467C57.7992 85.9592 57.7947 86.0717 57.7812 86.1797C58.0107 84.5328 57.9567 82.9444 57.9522 81.3065C58.7711 81.383 60.0671 81.158 60.814 81.5809C61.1245 81.7654 61.3675 82.0399 61.579 82.3369C62.1415 83.1424 62.7085 83.9433 63.2709 84.7443C63.8334 85.5407 64.3914 86.3372 64.9538 87.1337C65.4173 87.8221 66.2228 88.2361 67.0507 88.2046C68.2342 88.2091 69.4221 87.3587 69.1701 86.0762L69.3591 86.0942L69.3636 86.0987ZM68.5222 73.1799C68.5807 73.3194 68.6257 73.4678 68.6707 73.6208C68.6257 73.4588 68.5717 73.3059 68.5087 73.1574C68.5087 73.1664 68.5177 73.1754 68.5177 73.1799H68.5222ZM68.1937 72.5229C68.2117 72.5499 68.2252 72.5814 68.2387 72.6084C68.1577 72.4734 68.0767 72.3384 67.9822 72.2124C68.0542 72.3114 68.1262 72.4149 68.1892 72.5229H68.1937ZM67.7662 71.9424C67.8337 72.0189 67.8967 72.0999 67.9552 72.1809C67.8697 72.0639 67.7752 71.9559 67.6762 71.8524C67.7032 71.8839 67.7347 71.9154 67.7662 71.9469V71.9424ZM53.5649 71.119C53.6099 70.9975 53.6639 70.8805 53.7314 70.7725C53.7314 70.7725 53.7314 70.7725 53.7314 70.768C53.6639 70.876 53.6054 70.993 53.5604 71.119H53.5649ZM64.2969 75.0473C64.0989 76.3747 62.605 76.5682 61.48 76.5547C60.4091 76.5547 58.7126 76.5142 57.6417 76.5142C57.0477 76.5142 57.0882 73.5983 57.6822 73.5983C58.7441 73.5983 60.3821 73.6343 61.444 73.6388C62.5195 73.6568 63.9279 73.7468 64.3014 74.9303C64.2969 74.9663 64.3014 75.0113 64.2924 75.0473H64.2969Z" fill="#056FEC"/>
<path d="M32.5823 83.9298C32.5823 84.4968 32.8207 85.0143 33.2932 85.4822C33.7657 85.9502 34.2967 86.2292 34.8861 86.3147C34.9896 86.3282 35.0931 86.3372 35.1921 86.3372C35.4756 86.3372 35.7366 86.2787 35.9886 86.1617C36.3261 85.9997 36.5871 85.7252 36.7806 85.3428C37.1765 84.5283 37.577 83.7093 37.973 82.8949C40.7764 83.2549 43.5887 83.5518 46.4011 83.7858C46.7926 84.6858 47.184 85.5857 47.5755 86.4857C47.7645 86.9132 48.0255 87.2417 48.3585 87.4711C48.687 87.7006 49.0514 87.8311 49.4519 87.8581C49.5104 87.8581 49.5644 87.8626 49.6229 87.8626C50.1449 87.8626 50.6129 87.6961 51.0313 87.3632C51.4903 86.9942 51.7243 86.5262 51.7243 85.9592C51.7243 85.6487 51.6478 85.3248 51.4903 84.9918C49.1954 80.1995 46.9006 75.3667 44.6102 70.489C44.3852 70.003 44.0477 69.616 43.5932 69.3191C43.1432 69.0266 42.6573 68.8511 42.1353 68.7971C42.0138 68.7836 41.8968 68.7791 41.7843 68.7791C41.3838 68.7791 41.0103 68.8556 40.6684 69.0086C40.2274 69.2066 39.8944 69.526 39.6694 69.9625C37.3835 74.3498 35.1021 78.7011 32.8207 83.0074C32.6633 83.3089 32.5868 83.6148 32.5868 83.9253L32.5823 83.9298ZM42.1848 74.0708C43.0532 76.0822 43.9217 78.0846 44.7857 80.0825C43.0487 79.9205 41.3163 79.7405 39.5839 79.5335C40.4479 77.7201 41.3163 75.8977 42.1848 74.0753V74.0708ZM32.5328 71.5374C31.3178 71.3439 30.1029 71.1415 28.8879 70.93V83.0839C28.8879 83.7903 28.6675 84.3168 28.231 84.6543C27.916 84.8973 27.529 85.0233 27.07 85.0233C26.8855 85.0233 26.692 85.0053 26.4896 84.9648C25.7696 84.8253 25.1891 84.5013 24.7526 83.9928C24.3162 83.4843 24.0957 82.8724 24.0957 82.1704V70.0165C22.8852 69.769 21.6793 69.5125 20.4734 69.2471C19.7219 69.0806 19.1639 68.7926 18.7949 68.3876C18.426 67.9826 18.246 67.4561 18.246 66.7992C18.246 66.1467 18.4305 65.7057 18.7949 65.4852C19.0019 65.3592 19.2719 65.2917 19.6049 65.2917C19.8569 65.2917 20.1449 65.3277 20.4734 65.3997C24.4737 66.2907 28.4965 67.0557 32.5328 67.6901C33.2932 67.8116 33.8557 68.0501 34.2292 68.4146C34.5982 68.7791 34.7871 69.2876 34.7871 69.94C34.7871 70.597 34.6027 71.056 34.2292 71.317C33.9727 71.5014 33.6217 71.5914 33.1807 71.5914C32.9827 71.5914 32.7667 71.5734 32.5328 71.5374ZM119.986 62.6369C119.401 62.2724 118.685 62.0924 117.844 62.0924C117.12 62.0924 116.301 62.2274 115.383 62.4884C113.218 63.1094 111.049 63.6943 108.871 64.2433C108.174 64.4188 107.639 64.7383 107.261 65.2063C106.887 65.6742 106.698 66.2637 106.698 66.9657V80.771C106.698 81.4954 106.905 82.0174 107.324 82.3369C107.594 82.5439 107.922 82.6474 108.314 82.6474C108.529 82.6474 108.768 82.6159 109.024 82.5529C109.758 82.3684 110.334 82.0084 110.757 81.4775C111.18 80.9465 111.396 80.3165 111.396 79.592V75.2048C112.728 74.8538 114.06 74.4848 115.383 74.1023C117.345 73.5353 118.87 72.5499 119.972 71.173C121.075 69.7915 121.624 68.1941 121.624 66.3897C121.624 64.5673 121.079 63.3208 119.986 62.6459V62.6369ZM116.665 69.6205C116.251 70.102 115.617 70.471 114.753 70.714C113.637 71.0335 112.516 71.3394 111.396 71.6364V67.1727C112.516 66.8757 113.632 66.5697 114.753 66.2502C115.171 66.1332 115.536 66.0702 115.851 66.0702C116.809 66.0702 117.286 66.6282 117.286 67.7531C117.286 68.5091 117.079 69.1301 116.665 69.616V69.6205ZM70.4344 73.2429C70.0609 72.9414 69.8719 72.4599 69.8719 71.8074C69.8719 71.155 70.0609 70.6645 70.4344 70.3405C70.8079 70.0165 71.3793 69.8365 72.1443 69.8005C76.2166 69.598 80.2844 69.2651 84.3387 68.8061C84.5277 68.7836 84.7077 68.7746 84.8742 68.7746C85.3736 68.7746 85.7606 68.8736 86.0396 69.0716C86.4131 69.337 86.5976 69.7915 86.5976 70.4485C86.5976 71.101 86.4131 71.6094 86.0396 71.9739C85.6661 72.3384 85.0992 72.5679 84.3387 72.6534C83.1148 72.7929 81.8953 72.9189 80.6714 73.0359V85.1898C80.6714 85.8962 80.4509 86.4812 80.0054 86.9402C79.5644 87.3992 78.975 87.6646 78.246 87.7231C78.1515 87.7321 78.057 87.7366 77.967 87.7366C77.364 87.7366 76.8736 87.5656 76.4866 87.2282C76.0456 86.8367 75.8206 86.2877 75.8206 85.5857V73.4318C74.5967 73.5173 73.3682 73.5893 72.1443 73.6478C72.0588 73.6478 71.9733 73.6523 71.8923 73.6523C71.2488 73.6523 70.7629 73.5173 70.4344 73.2474V73.2429ZM55.6526 69.922C55.6076 69.922 55.5626 69.922 55.5176 69.922C54.8697 69.922 54.3657 70.0885 54.0057 70.4305C53.6232 70.7905 53.4297 71.326 53.4297 72.0324C53.4297 76.6357 53.4297 81.2345 53.4297 85.8377C53.4297 86.5577 53.6412 87.1427 54.0687 87.5836C54.4962 88.0201 55.0721 88.2586 55.8056 88.2811C55.8461 88.2811 55.8866 88.2811 55.9271 88.2811C56.6021 88.2811 57.133 88.0831 57.529 87.6961C57.9475 87.2867 58.1545 86.7197 58.1545 85.9952C58.1545 84.4563 58.1545 82.9174 58.1545 81.3785C58.7215 81.392 59.2884 81.401 59.8509 81.4055C60.2154 81.4055 60.5349 81.4954 60.8049 81.6574C61.0748 81.8239 61.3313 82.0804 61.5743 82.4224C62.7083 84.0603 63.8377 85.6892 64.9717 87.3047C65.2326 87.6781 65.5476 87.9571 65.9121 88.1416C66.2586 88.3126 66.6276 88.3981 67.0191 88.3981C67.0416 88.3981 67.064 88.3981 67.0865 88.3981C67.694 88.3846 68.2295 88.1821 68.693 87.7951C69.1519 87.4127 69.3859 86.9402 69.3859 86.3912C69.3859 85.9772 69.2284 85.5452 68.918 85.0908C68.378 84.3438 67.838 83.5968 67.298 82.8454C66.8796 82.2694 66.4566 81.8419 66.0291 81.5584C65.6016 81.275 65.1021 81.095 64.5262 81.014C65.9211 80.672 66.9966 80.0015 67.766 79.0251C68.531 78.0486 68.9135 76.8697 68.9135 75.4927C68.9135 73.6838 68.351 72.3294 67.2305 71.4024C66.1056 70.4755 64.4317 70.0345 62.2043 70.0345C60.0174 70.0345 57.835 69.9985 55.6481 69.922H55.6526ZM64.4272 75.7492C64.4272 76.4872 64.1977 77.0272 63.7342 77.3557C63.2797 77.6841 62.5283 77.8506 61.4843 77.8506C61.4708 77.8506 61.4573 77.8506 61.4483 77.8506C60.3324 77.8506 59.2209 77.8326 58.105 77.8101V73.5803C59.2209 73.6028 60.3324 73.6163 61.4483 73.6208C62.5103 73.6208 63.2707 73.7873 63.7342 74.1203C64.1932 74.4533 64.4272 74.9933 64.4272 75.7537V75.7492ZM104.16 76.0237C104.16 78.5886 103.472 80.699 102.095 82.3369C100.713 83.9748 98.72 85.0548 96.1056 85.5182C95.3631 85.6487 94.6747 85.7117 94.0312 85.7117C92.3933 85.7117 91.0749 85.2888 90.0894 84.4653C88.717 83.3224 88.0285 81.446 88.0285 78.8676V70.534C88.0285 69.8275 88.24 69.2381 88.663 68.7566C89.086 68.2796 89.6529 67.9871 90.3594 67.8836C90.5214 67.8611 90.6744 67.8476 90.8184 67.8476C91.3178 67.8476 91.7273 67.9826 92.0558 68.2616C92.4788 68.6171 92.6903 69.1481 92.6903 69.8545V78.3681C92.6903 79.673 92.9828 80.636 93.5722 81.2435C94.0177 81.7069 94.6117 81.9409 95.3586 81.9409C95.5926 81.9409 95.8401 81.9184 96.1056 81.8734C97.2081 81.6799 98.0495 81.167 98.6345 80.3525C99.2195 79.538 99.5119 78.4716 99.5119 77.1667V68.6531C99.5119 67.9466 99.7234 67.3436 100.142 66.8397C100.56 66.3357 101.123 66.0117 101.825 65.8677C102.041 65.8227 102.248 65.8002 102.437 65.8002C102.864 65.8002 103.224 65.9127 103.521 66.1377C103.949 66.4662 104.165 66.9837 104.165 67.6856V76.0192L104.16 76.0237ZM17.7285 77.4636C17.7285 78.5976 17.4135 79.529 16.7835 80.24C16.1536 80.9555 15.2716 81.41 14.1422 81.5899C13.7957 81.6439 13.4357 81.6709 13.0532 81.6709C12.1938 81.6709 11.2443 81.5269 10.2094 81.2345C8.85493 80.852 7.604 80.3345 6.44755 79.6865C5.29561 79.0341 4.34616 78.3186 3.60819 77.5491C3.32471 77.2342 3.11772 76.9372 2.99173 76.6537C2.86573 76.3702 2.80273 76.0417 2.80273 75.6637C2.80273 75.1463 2.95573 74.7503 3.25721 74.4668C3.4642 74.2733 3.69819 74.1788 3.95468 74.1788C4.07167 74.1788 4.18867 74.1968 4.31466 74.2373C4.53065 74.3048 4.74214 74.4083 4.94463 74.5388C5.14712 74.6693 5.39911 74.8808 5.70059 75.1598C6.38906 75.7672 7.07752 76.2577 7.76149 76.6312C8.44545 77.0047 9.21942 77.3152 10.0789 77.5581C10.7088 77.7336 11.2443 77.8236 11.6853 77.8236C11.9418 77.8236 12.1623 77.7921 12.3558 77.7336C12.8732 77.5716 13.1342 77.1982 13.1342 76.6132C13.1342 76.2172 12.8912 75.8122 12.4098 75.3982C11.9283 74.9843 11.0058 74.4578 9.6514 73.7963C7.97748 72.9594 6.67254 72.1314 5.72759 71.344C4.78264 70.5565 4.12567 69.7555 3.74769 68.9546C3.36971 68.1536 3.18072 67.2717 3.18072 66.3087C3.18072 65.2063 3.5002 64.3153 4.13917 63.6223C4.77814 62.9294 5.65559 62.5064 6.77604 62.3354C7.10902 62.2859 7.46 62.2589 7.81999 62.2589C8.66594 62.2589 9.5794 62.3984 10.5648 62.6729C11.8023 63.0194 12.9047 63.4513 13.8722 63.9778C14.8396 64.5043 15.7261 65.1568 16.5271 65.9397C16.833 66.2412 17.049 66.5292 17.1795 66.8082C17.3055 67.0872 17.373 67.4066 17.373 67.7711C17.373 68.2886 17.2245 68.6981 16.9275 69.0041C16.7025 69.2336 16.4506 69.3505 16.1626 69.3505C16.0681 69.3505 15.9691 69.337 15.8656 69.3146C15.6451 69.2606 15.4381 69.1796 15.2536 69.0716C15.0646 68.9636 14.8036 68.7611 14.4617 68.4686C14.3762 68.3966 14.1332 68.2031 13.7372 67.8791C13.3367 67.5596 12.8687 67.2672 12.3378 66.9927C11.8023 66.7182 11.2218 66.4977 10.5963 66.3222C10.1014 66.1827 9.66489 66.1152 9.28241 66.1152C8.99443 66.1152 8.73794 66.1557 8.51295 66.2322C7.99098 66.4122 7.72999 66.7812 7.72999 67.3301C7.72999 67.6541 7.81999 67.9511 8.00898 68.2121C8.19347 68.4731 8.53995 68.7791 9.04843 69.1211C9.5569 69.463 10.3084 69.8815 11.3073 70.363C12.9362 71.173 14.2187 71.9379 15.1546 72.6804C16.0906 73.4228 16.7565 74.1743 17.148 74.9393C17.5395 75.7042 17.7375 76.5412 17.7375 77.4546L17.7285 77.4636Z" fill="white"/>
<path d="M94.824 88.9966C94.761 88.9471 94.689 88.9021 94.6215 88.8616C94.653 88.8796 94.689 88.8931 94.725 88.9156L93.4831 88.0021C91.9127 86.9807 89.7798 88.4701 89.8968 90.2745C89.8878 92.8979 89.9733 95.4268 89.9643 98.0501C88.0654 95.9757 86.2384 93.9868 84.3575 91.8854C83.4171 90.8325 82.6701 89.7615 81.6937 89.3116C80.6902 88.8526 79.3583 89.3341 78.8048 90.3015C78.5663 90.6975 78.4628 91.143 78.4628 91.6109C78.4628 92.7134 78.4583 93.8203 78.4538 94.9228C78.4448 98.2301 78.4403 101.537 78.4313 104.845C78.3773 105.502 78.9443 106.636 79.1963 107.302C79.2008 107.315 79.2098 107.333 79.2143 107.347C79.2188 107.365 79.2278 107.383 79.2323 107.401C79.2323 107.392 79.2278 107.383 79.2233 107.369C79.5518 108.166 80.3572 108.701 81.3022 108.566C82.2426 108.499 83.0751 107.864 83.3676 106.969C83.6511 106.006 83.4711 104.953 83.5251 103.958C83.5296 101.911 83.5386 99.868 83.5431 97.8206C86.1395 100.754 88.7583 103.661 91.3997 106.546C92.4256 107.639 94.392 106.955 95.031 105.745C95.274 105.317 95.382 104.836 95.3865 104.336C95.4 102.041 95.409 99.751 95.418 97.4562C95.4225 96.3087 95.427 95.1613 95.436 94.0093C95.4405 92.8619 95.4495 91.7099 95.454 90.558C95.463 89.964 95.2875 89.3746 94.8285 88.9876L94.824 88.9966Z" fill="#F76B00"/>
<path d="M74.7642 94.4638C75.6597 94.4053 76.5507 94.1308 76.8971 93.2714C77.0906 92.7674 77.1131 92.0699 76.8341 91.566C76.8386 91.575 76.8431 91.5794 76.8476 91.5884L76.2987 90.5715C76.2762 90.531 76.2537 90.4905 76.2267 90.4545C75.9522 90.0585 75.4842 89.8785 75.0117 89.829C71.8844 89.883 68.7435 90.162 65.6072 90.162C64.3428 90.117 63.4068 91.0215 63.4743 92.2949C63.4743 93.4019 63.4743 94.5043 63.4743 95.6112C63.4923 99.4766 63.4293 103.364 63.5103 107.23V107.176C63.5103 107.491 63.5553 107.792 63.6543 108.076C63.9333 108.949 64.8512 109.349 65.7242 109.304C67.2271 109.277 68.7345 109.237 70.2375 109.178C71.7404 109.12 73.2433 109.043 74.7462 108.949C75.4752 108.904 76.2492 108.706 76.6901 108.094C77.0411 107.59 77.1221 106.834 76.8926 106.244C76.8971 106.258 76.9061 106.267 76.9106 106.28L76.3572 104.701C75.7812 103.27 73.9048 103.868 72.7033 103.85C71.1959 103.931 69.6885 103.994 68.1811 104.039C68.1811 103.31 68.1811 102.577 68.1811 101.848C69.693 101.803 71.2094 101.74 72.7213 101.663C73.6798 101.573 74.7417 101.69 75.6102 101.231C76.4472 100.817 76.6856 99.697 76.3842 98.8871C76.3617 98.8331 76.3302 98.7881 76.3032 98.7386C76.3257 98.7791 76.3482 98.8106 76.3707 98.8556L75.8397 97.5597C75.2277 96.2547 73.4863 96.7902 72.3344 96.7722C70.9529 96.8442 69.567 96.9027 68.1856 96.9432C68.1856 96.2187 68.1856 95.4943 68.1856 94.7698C70.3815 94.7068 72.5773 94.6078 74.7687 94.4683L74.7642 94.4638Z" fill="#F76B00"/>
<path d="M44.8046 89.3385C43.8281 89.244 42.8517 89.1451 41.8752 89.0326C39.9223 88.8121 37.9694 88.5646 36.0255 88.2856C35.0536 88.1461 34.0771 87.9976 33.1052 87.8446C32.5652 87.7636 31.9532 87.7186 31.4762 88.0201C31.4627 88.0291 31.4492 88.0381 31.4357 88.0471L30.1848 88.9606C30.1848 88.9606 30.2028 88.9516 30.2118 88.9426C30.0363 89.0596 29.8968 89.226 29.8068 89.451C29.3389 90.7425 30.0138 92.1779 31.3998 92.4704C32.7767 92.7674 34.1986 92.9159 35.5935 93.1364C35.607 96.1692 35.616 99.1976 35.6295 102.23C35.661 103.405 35.58 104.597 35.6835 105.763C35.859 106.928 36.912 107.779 38.0594 107.891C38.9414 108.053 39.9088 107.662 40.2778 106.861L41.0788 105.362C41.2498 105.043 41.3128 104.674 41.3128 104.309C41.3128 103.342 41.3083 102.37 41.3038 101.402C41.2948 98.8871 41.2858 96.3672 41.2813 93.8518C41.9112 93.9193 42.5457 93.9913 43.1757 94.0543C44.1251 94.1218 45.3671 94.4323 46.0465 93.5728C46.1005 93.4873 46.1455 93.3973 46.186 93.3073C46.1635 93.3568 46.15 93.4108 46.123 93.4603L46.7575 92.3714C47.1355 91.6199 47.0725 90.5265 46.4425 89.9325C45.9925 89.5365 45.3941 89.397 44.7956 89.3385H44.8046ZM30.7158 88.7401C30.9003 88.6996 31.0938 88.6861 31.2918 88.6906C31.0983 88.6906 30.9003 88.6996 30.7158 88.7401ZM40.4353 106.339C40.4578 106.082 40.4668 105.826 40.4713 105.569C40.4713 105.673 40.4713 105.772 40.4713 105.875C40.4713 106.033 40.4578 106.186 40.4353 106.339Z" fill="#F76B00"/>
<path d="M57.7233 104.057C56.1439 104.017 54.5645 103.958 52.9851 103.877C52.9851 103.148 52.9851 102.415 52.9851 101.686C54.875 101.78 56.7649 101.848 58.6548 101.888C59.4692 101.911 60.4367 101.713 60.7832 100.89C60.8687 100.674 60.9137 100.435 60.9227 100.192C60.9227 100.21 60.9227 100.219 60.9227 100.237L60.9857 98.8871C61.1117 96.7587 58.8483 96.9837 57.3453 96.9477C55.8874 96.9072 54.434 96.8487 52.9761 96.7767C52.9761 96.0523 52.9761 95.3278 52.9761 94.6033C55.0415 94.7068 57.1068 94.7788 59.1767 94.8103H59.2667C60.1217 94.8103 60.9857 94.5988 61.3141 93.7799C61.5031 93.2849 61.6876 91.1655 60.9362 90.621C60.4817 90.2565 59.8877 90.1665 59.3027 90.153C57.8538 90.1305 56.4004 90.0855 54.9515 90.0271C53.5025 89.9686 52.0536 89.8921 50.6047 89.7976C50.2672 89.7751 49.9162 89.7976 49.6012 89.9011C48.8723 90.081 48.5483 90.9405 48.2153 91.548C48.0218 91.8495 47.9048 92.2544 47.9093 92.8214C47.9183 96.2637 47.9228 99.7061 47.9318 103.148C47.9318 104.296 47.9363 105.439 47.9408 106.586C47.9138 107.482 48.3503 108.386 49.2142 108.719C50.2222 109.066 51.3561 108.944 52.4136 109.052C54.668 109.169 56.9224 109.25 59.1812 109.291C59.8877 109.3 60.6707 109.178 61.1252 108.593C61.3456 108.287 61.4536 107.891 61.4536 107.491L61.4941 105.952C61.5796 103.792 59.2397 104.098 57.7278 104.048L57.7233 104.057Z" fill="#F76B00"/>
<path d="M45.7945 90.918C46.168 91.26 46.3525 91.7594 46.3525 92.4119C46.3525 93.0644 46.1635 93.5369 45.7945 93.8203C45.4976 94.0498 45.0746 94.1623 44.5256 94.1623C44.3861 94.1623 44.2421 94.1533 44.0891 94.1398C42.8652 94.0228 41.6412 93.8923 40.4218 93.7529C40.4218 97.8027 40.4218 101.852 40.4218 105.907C40.4218 106.613 40.2013 107.149 39.7603 107.518C39.4049 107.815 38.9639 107.963 38.4239 107.963C38.2889 107.963 38.1494 107.954 38.0054 107.936C37.2765 107.842 36.696 107.554 36.255 107.072C35.814 106.591 35.5935 105.997 35.5935 105.29V93.1364C34.3741 92.9654 33.1592 92.7809 31.9397 92.5874C31.1793 92.4659 30.6168 92.2139 30.2478 91.8314C29.8788 91.449 29.6943 90.9315 29.6943 90.279C29.6943 89.6266 29.8788 89.1766 30.2478 88.9291C30.4953 88.7626 30.8283 88.6816 31.2468 88.6816C31.4582 88.6816 31.6877 88.7041 31.9397 88.7446C35.976 89.3926 40.0258 89.91 44.0891 90.297C44.8541 90.369 45.4211 90.576 45.7945 90.918ZM59.1409 105.673C56.945 105.632 54.7536 105.56 52.5622 105.443V101.677C54.5826 101.78 56.5985 101.852 58.6189 101.893C58.6549 101.893 58.6864 101.893 58.7224 101.893C59.4199 101.893 59.9508 101.744 60.3198 101.456C60.7023 101.15 60.8958 100.705 60.8958 100.12C60.8958 98.8961 60.1398 98.2841 58.6234 98.2571C56.603 98.2166 54.5826 98.1446 52.5667 98.0411V94.5853C54.7581 94.6978 56.954 94.7743 59.1454 94.8148C59.1769 94.8148 59.2039 94.8148 59.2354 94.8148C60.6888 94.8148 61.4178 94.1938 61.4178 92.9834C61.4178 92.3984 61.2243 91.9484 60.8418 91.638C60.4593 91.323 59.8923 91.1655 59.1454 91.152C56.135 91.098 53.1202 90.9765 50.1143 90.783C50.0288 90.7785 49.9478 90.774 49.8713 90.774C49.2774 90.774 48.8094 90.927 48.4719 91.2375C48.0894 91.5885 47.9004 92.1149 47.9004 92.8214C47.9004 97.4247 47.9004 102.023 47.9004 106.622C47.9004 107.329 48.0894 107.882 48.4719 108.292C48.8544 108.697 49.4034 108.926 50.1143 108.971C53.1247 109.165 56.135 109.286 59.1454 109.34C59.1724 109.34 59.2039 109.34 59.2309 109.34C59.9373 109.34 60.4728 109.192 60.8418 108.899C61.2243 108.593 61.4178 108.148 61.4178 107.563C61.4178 106.325 60.6618 105.704 59.1454 105.677L59.1409 105.673ZM75.0521 105.308C74.9486 105.308 74.8406 105.308 74.7281 105.317C72.5367 105.457 70.3453 105.556 68.1494 105.619V101.852C70.1698 101.794 72.1857 101.704 74.2061 101.582C74.9531 101.537 75.5201 101.344 75.9025 101.006C76.285 100.669 76.4785 100.21 76.474 99.6251C76.474 98.4911 75.8216 97.9331 74.5211 97.9331C74.4221 97.9331 74.3141 97.9331 74.2061 97.9421C72.1902 98.0636 70.1698 98.1536 68.1494 98.2121V94.7563C70.3453 94.6933 72.5367 94.5898 74.7281 94.4548C76.24 94.3603 76.996 93.6764 76.996 92.4389C76.996 91.8539 76.8025 91.422 76.4245 91.1385C76.096 90.8955 75.6371 90.7785 75.0431 90.7785C74.9441 90.7785 74.8361 90.7785 74.7281 90.7875C71.7178 90.9765 68.7074 91.098 65.6971 91.1475C64.9816 91.161 64.4326 91.3545 64.0501 91.737C63.6677 92.1194 63.4742 92.6594 63.4742 93.3659V107.167C63.4742 107.873 63.6677 108.413 64.0501 108.787C64.4191 109.151 64.9456 109.336 65.6296 109.336C65.6521 109.336 65.6746 109.336 65.6971 109.336C68.7119 109.286 71.7223 109.165 74.7281 108.976C75.4751 108.926 76.042 108.733 76.4245 108.395C76.807 108.058 76.996 107.599 76.996 107.014C76.996 105.866 76.348 105.304 75.0521 105.304V105.308ZM93.5597 88.5781C93.4247 88.5781 93.2807 88.5916 93.1277 88.6141C92.4707 88.7176 91.9398 89.0101 91.5348 89.4961C91.1298 89.9775 90.9273 90.5715 90.9273 91.278V99.4811C88.3039 96.6192 85.6716 93.7034 83.0347 90.7335C82.6747 90.324 82.1887 90.1215 81.5813 90.1215C81.4868 90.1215 81.3878 90.126 81.2888 90.135C80.6273 90.198 80.0918 90.4635 79.6734 90.9315C79.2549 91.3995 79.0479 91.9754 79.0479 92.6639V106.465C79.0479 107.171 79.2549 107.72 79.6734 108.112C80.0333 108.449 80.4788 108.62 81.0188 108.62C81.1043 108.62 81.1943 108.62 81.2888 108.607C81.9637 108.539 82.5037 108.269 82.9042 107.797C83.3047 107.324 83.5027 106.735 83.5027 106.028V97.8251C86.1395 100.795 88.7674 103.715 91.3953 106.577C91.7058 106.937 92.1377 107.117 92.6867 107.117C92.8352 107.117 92.9927 107.104 93.1592 107.077C93.8162 106.973 94.3471 106.667 94.7611 106.168C95.1751 105.668 95.3821 105.065 95.3821 104.359V90.558C95.3821 89.8695 95.1706 89.3476 94.7476 88.9876C94.4191 88.7086 94.0276 88.5736 93.5597 88.5736V88.5781Z" fill="#FFD700"/>
<path d="M45.1779 40.093C47.6258 43.7558 51.9681 45.2138 56.6703 45.2138C62.1376 45.2138 68.0908 43.2429 72.1046 40.471C79.0837 35.9937 83.633 30.324 82.5486 24.4518C81.7791 19.5155 76.2354 15.1328 69.3777 14.0078C67.9963 13.7603 66.5788 13.6478 65.1569 13.6478C60.0767 13.6478 54.8479 14.9888 50.8251 17.0137C49.9882 17.4366 50.2312 18.3051 51.0591 18.3141C51.2886 18.3141 51.7881 18.1701 52.0491 18.0576C55.6984 16.4017 60.1667 15.2857 64.4325 15.2857C67.6363 15.2857 70.7276 15.9157 73.2655 17.4186C79.5697 21.068 79.2862 27.8266 73.4095 32.4389C72.604 33.1094 71.6501 33.7708 70.7321 34.3963C70.7321 34.3963 70.3272 30.5805 70.1472 29.0776C69.9897 27.7771 69.4227 26.1122 67.3663 26.1122C67.1818 26.1122 66.9838 26.1257 66.7768 26.1527C64.6709 26.4362 63.8565 28.2811 63.951 30.2115C64.05 32.2004 64.3965 35.1388 64.5854 37.5956C63.6765 37.9106 62.3266 38.3831 61.3816 38.5721C60.2342 38.8196 59.1002 38.9411 58.0203 38.9411C52.724 38.9411 48.8542 36.0702 51.9726 31.7234C55.1359 27.3541 60.2027 24.5823 67.1818 22.9984C68.9412 22.5979 69.6522 21.2839 69.6567 20.2715C69.6657 18.3276 67.9333 17.6841 65.7959 17.9136C63.4245 18.1701 57.5793 19.277 50.9736 24.7983C46.3748 28.6456 41.6231 34.6033 45.1689 40.0885L45.1779 40.093Z" fill="#FFD700"/>
<path d="M82.5436 24.4113C82.1116 21.7474 80.4107 19.502 78.2373 17.7831C72.5541 13.2923 64.4545 12.8783 57.6014 14.5658C55.2525 15.1282 52.9351 15.9472 50.8337 17.0001C50.4917 17.1711 50.2757 17.4366 50.3252 17.7786C50.3252 17.7696 50.3252 17.7651 50.3207 17.7561L50.2847 18.7551C50.4647 19.5425 51.4682 19.259 52.0036 19.0295C57.8354 16.4872 64.783 15.1507 70.9072 17.3961C74.5295 18.7281 78.1383 22.2019 77.6839 26.2787C77.0494 28.7626 75.587 30.6435 73.4181 32.3804C72.5766 33.0778 71.6497 33.7123 70.7452 34.3333C70.6327 33.2713 70.4572 31.6379 70.3222 30.4635C70.1467 29.1765 70.2007 28.1191 69.4808 27.0661C68.6573 25.8242 66.6054 25.8377 65.4445 26.5982C64.2745 27.3631 63.892 28.8211 63.964 30.1665C63.9595 30.0495 63.955 29.9325 63.955 29.8155C63.8965 32.3669 64.3105 34.9948 64.504 37.5686C61.3947 38.7791 57.5789 39.3865 54.4065 38.3651C52.8271 37.8341 51.5717 37.0736 51.0272 35.6112C51.0182 34.5493 51.4997 33.5818 52.1251 32.7044C52.9081 31.6289 53.8035 30.6525 54.8205 29.766C56.9939 27.8806 59.5228 26.5352 62.3261 25.5092C63.8111 24.9692 65.4175 24.5058 67.1364 24.1143C67.5504 24.0198 67.9013 23.8758 68.2028 23.7003C68.9768 23.2458 69.5078 22.4494 69.5708 21.5809C69.5708 21.5809 69.6698 20.3435 69.6608 20.384C64.5265 19.4705 62.6051 18.4041 59.9772 19.376C53.7586 21.6889 42.1356 30.045 44.183 37.8701C44.174 37.8431 44.165 37.8161 44.1605 37.7891C44.7635 41.0919 47.1889 43.5848 50.2352 44.8223C57.0749 47.5086 66.0609 45.2722 71.9961 41.3169C76.7344 38.2346 81.4367 34.1443 82.4401 28.4161C82.4311 28.4476 82.4221 28.4836 82.4131 28.5151C82.7416 27.1696 82.8001 25.8017 82.5391 24.4203L82.5436 24.4113ZM44.336 38.3426C44.318 38.2841 44.3045 38.2301 44.282 38.1716C44.309 38.2481 44.3315 38.3246 44.3585 38.4011C44.3495 38.3831 44.3405 38.3606 44.336 38.3426ZM44.561 38.9006C44.534 38.8421 44.516 38.7836 44.489 38.7251C44.5205 38.7971 44.5475 38.8691 44.579 38.9411C44.5745 38.9276 44.5655 38.9141 44.561 38.9006ZM44.8355 39.463C44.8085 39.409 44.786 39.355 44.7545 39.301C44.786 39.3595 44.813 39.4225 44.8445 39.481C44.8445 39.4765 44.8355 39.4675 44.831 39.463H44.8355ZM50.8652 34.6843C50.8562 34.5988 50.8652 34.5088 50.8697 34.4233C50.8652 34.5133 50.8607 34.5988 50.8652 34.6843Z" fill="#FF7700"/>
<path d="M45.1779 40.093C47.6258 43.7558 51.9681 45.2138 56.6703 45.2138C62.1376 45.2138 68.0908 43.2429 72.1046 40.471C79.0837 35.9937 83.633 30.324 82.5486 24.4518C81.7791 19.5155 76.2354 15.1328 69.3777 14.0078C67.9963 13.7603 66.5788 13.6478 65.1569 13.6478C60.0767 13.6478 54.8479 14.9888 50.8251 17.0137C49.9882 17.4366 50.2312 18.3051 51.0591 18.3141C51.2886 18.3141 51.7881 18.1701 52.0491 18.0576C55.6984 16.4017 60.1667 15.2857 64.4325 15.2857C67.6363 15.2857 70.7276 15.9157 73.2655 17.4186C79.5697 21.068 79.2862 27.8266 73.4095 32.4389C72.604 33.1094 71.6501 33.7708 70.7321 34.3963C70.7321 34.3963 70.3272 30.5805 70.1472 29.0776C69.9897 27.7771 69.4227 26.1122 67.3663 26.1122C67.1818 26.1122 66.9838 26.1257 66.7768 26.1527C64.6709 26.4362 63.8565 28.2811 63.951 30.2115C64.05 32.2004 64.3965 35.1388 64.5854 37.5956C63.6765 37.9106 62.3266 38.3831 61.3816 38.5721C60.2342 38.8196 59.1002 38.9411 58.0203 38.9411C52.724 38.9411 48.8542 36.0702 51.9726 31.7234C55.1359 27.3541 60.2027 24.5823 67.1818 22.9984C68.9412 22.5979 69.6522 21.2839 69.6567 20.2715C69.6657 18.3276 67.9333 17.6841 65.7959 17.9136C63.4245 18.1701 57.5793 19.277 50.9736 24.7983C46.3748 28.6456 41.6231 34.6033 45.1689 40.0885L45.1779 40.093Z" fill="#FFD700"/>
<path d="M100.656 36.9027L97.7896 36.0657L96.8762 32.5019C96.8087 32.2319 96.5657 32.0429 96.2867 32.0429C96.0077 32.0429 95.7648 32.2319 95.6973 32.5019L94.7838 36.0657L91.9174 36.9027C91.6205 36.9882 91.418 37.2627 91.418 37.5687C91.418 37.8791 91.6205 38.1491 91.9174 38.2346L94.7838 39.0716L95.6973 42.6354C95.7648 42.9054 96.0077 43.0944 96.2867 43.0944C96.5657 43.0944 96.8087 42.9054 96.8762 42.6354L97.7896 39.0716L100.656 38.2346C100.953 38.1491 101.155 37.8746 101.155 37.5687C101.155 37.2582 100.953 36.9882 100.656 36.9027Z" fill="#043FAD"/>
<path d="M25.3244 101.546L23.5019 101.015L22.9215 98.7521C22.8765 98.5811 22.7235 98.4596 22.548 98.4596C22.3725 98.4596 22.215 98.5811 22.1745 98.7521L21.594 101.015L19.7716 101.546C19.5826 101.6 19.4521 101.776 19.4521 101.969C19.4521 102.167 19.5826 102.338 19.7716 102.392L21.594 102.923L22.1745 105.187C22.2195 105.358 22.3725 105.479 22.548 105.479C22.7235 105.479 22.881 105.358 22.9215 105.187L23.5019 102.923L25.3244 102.392C25.5133 102.338 25.6438 102.163 25.6438 101.969C25.6438 101.771 25.5133 101.6 25.3244 101.546Z" fill="white"/>
<path d="M36.5296 31.6109L33.8567 30.8325L33.0062 27.5116C32.9432 27.2597 32.7138 27.0842 32.4573 27.0842C32.1963 27.0842 31.9713 27.2597 31.9083 27.5116L31.0578 30.8325L28.385 31.6109C28.1105 31.6919 27.917 31.9439 27.917 32.2319C27.917 32.5199 28.106 32.7719 28.385 32.8529L31.0578 33.6313L31.9083 36.9522C31.9713 37.2042 32.2008 37.3797 32.4573 37.3797C32.7183 37.3797 32.9432 37.2042 33.0062 36.9522L33.8567 33.6313L36.5296 32.8529C36.804 32.7719 36.9975 32.5199 36.9975 32.2319C36.9975 31.9439 36.8085 31.6919 36.5296 31.6109Z" fill="white"/>
<path d="M18.922 37.4922C20.0552 37.4922 20.9739 36.5735 20.9739 35.4403C20.9739 34.307 20.0552 33.3884 18.922 33.3884C17.7888 33.3884 16.8701 34.307 16.8701 35.4403C16.8701 36.5735 17.7888 37.4922 18.922 37.4922Z" fill="#29D4FF"/>
<path d="M106.771 51.8059C108.591 51.8059 110.065 50.3312 110.065 48.5121C110.065 46.693 108.591 45.2183 106.771 45.2183C104.952 45.2183 103.478 46.693 103.478 48.5121C103.478 50.3312 104.952 51.8059 106.771 51.8059Z" fill="#29D4FF"/>
<path d="M86.2787 46.9281C87.1883 46.9281 87.9257 46.1908 87.9257 45.2812C87.9257 44.3717 87.1883 43.6343 86.2787 43.6343C85.3692 43.6343 84.6318 44.3717 84.6318 45.2812C84.6318 46.1908 85.3692 46.9281 86.2787 46.9281Z" fill="white"/>
<path d="M106.892 105.799C107.939 105.799 108.787 104.951 108.787 103.904C108.787 102.858 107.939 102.01 106.892 102.01C105.846 102.01 104.998 102.858 104.998 103.904C104.998 104.951 105.846 105.799 106.892 105.799Z" fill="white"/>
<path d="M106.923 34.7113C107.833 34.7113 108.57 33.9739 108.57 33.0643C108.57 32.1548 107.833 31.4174 106.923 31.4174C106.014 31.4174 105.276 32.1548 105.276 33.0643C105.276 33.9739 106.014 34.7113 106.923 34.7113Z" fill="white"/>
<path d="M16.3256 93.2804C17.2352 93.2804 17.9725 92.543 17.9725 91.6335C17.9725 90.7239 17.2352 89.9865 16.3256 89.9865C15.4161 89.9865 14.6787 90.7239 14.6787 91.6335C14.6787 92.543 15.4161 93.2804 16.3256 93.2804Z" fill="#29D4FF"/>
<path d="M48.3091 78.3276C46.8242 78.2556 45.3618 78.1746 43.9218 78.0801C44.2098 78.7461 44.4978 79.4166 44.7903 80.0825C43.0534 79.9205 41.321 79.7406 39.5886 79.5336C39.8586 78.9666 40.1285 78.3951 40.403 77.8282C38.8281 77.7022 37.2847 77.5627 35.7728 77.4097C34.7873 79.2861 33.8019 81.1535 32.8209 83.0119C32.6634 83.3134 32.5869 83.6194 32.5869 83.9298C32.5869 84.4968 32.8254 85.0143 33.2979 85.4823C33.7704 85.9502 34.3013 86.2292 34.8908 86.3147C34.9943 86.3282 35.0978 86.3372 35.1968 86.3372C35.4803 86.3372 35.7413 86.2787 35.9932 86.1617C36.3307 85.9997 36.5917 85.7253 36.7852 85.3428C37.1812 84.5283 37.5817 83.7094 37.9776 82.8949C40.781 83.2549 43.5934 83.5519 46.4057 83.7859C46.7972 84.6858 47.1887 85.5858 47.5802 86.4857C47.7692 86.9132 48.0301 87.2417 48.3631 87.4712C48.6916 87.7007 49.0561 87.8312 49.4566 87.8581C49.5151 87.8581 49.5691 87.8626 49.6276 87.8626C50.1495 87.8626 50.6175 87.6962 51.036 87.3632C51.495 86.9942 51.729 86.5262 51.729 85.9592C51.729 85.6488 51.6525 85.3248 51.495 84.9918C50.433 82.7779 49.3756 80.555 48.3136 78.3231L48.3091 78.3276Z" fill="#D9F7FF"/>
<path d="M24.0918 75.8752V82.1704C24.0918 82.8724 24.3123 83.4844 24.7488 83.9928C25.1852 84.5013 25.7657 84.8253 26.4857 84.9648C26.6927 85.0053 26.8862 85.0233 27.0661 85.0233C27.5251 85.0233 27.9121 84.9018 28.2271 84.6543C28.6636 84.3123 28.8841 83.7859 28.8841 83.0839V76.5997C27.2326 76.3747 25.6307 76.1317 24.0918 75.8752Z" fill="#D9F7FF"/>
<path d="M16.8465 74.4578C11.8923 73.3284 7.82449 72.0099 4.87713 70.5565C5.12912 70.822 5.41261 71.0875 5.72759 71.353C6.66804 72.1404 7.97748 72.9684 9.6514 73.8054C11.0058 74.4623 11.9238 74.9933 12.4098 75.4073C12.8912 75.8213 13.1342 76.2217 13.1342 76.6222C13.1342 77.2072 12.8732 77.5807 12.3558 77.7427C12.1668 77.8012 11.9418 77.8327 11.6853 77.8327C11.2443 77.8327 10.7088 77.7427 10.0789 77.5672C9.21492 77.3242 8.44545 77.0137 7.76149 76.6402C7.07752 76.2667 6.38906 75.7763 5.70059 75.1688C5.39911 74.8853 5.14712 74.6783 4.94463 74.5478C4.74214 74.4173 4.53065 74.3138 4.31466 74.2463C4.18867 74.2058 4.06717 74.1878 3.95468 74.1878C3.69819 74.1878 3.4642 74.2868 3.25721 74.4758C2.95573 74.7548 2.80273 75.1553 2.80273 75.6728C2.80273 76.0507 2.86573 76.3792 2.99173 76.6627C3.11772 76.9417 3.32471 77.2432 3.60819 77.5582C4.34616 78.3276 5.29111 79.0431 6.44755 79.6956C7.5995 80.348 8.85493 80.8655 10.2094 81.2435C11.2443 81.536 12.1893 81.68 13.0532 81.68C13.4312 81.68 13.7957 81.653 14.1422 81.599C15.2716 81.419 16.1536 80.9645 16.7835 80.249C17.4135 79.5336 17.7285 78.6066 17.7285 77.4727C17.7285 76.5637 17.5305 75.7223 17.139 74.9573C17.0535 74.7953 16.9545 74.6288 16.8465 74.4668V74.4578Z" fill="#D9F7FF"/>
<path d="M99.5075 75.7987V77.1712C99.5075 78.4761 99.215 79.5426 98.63 80.357C98.045 81.1715 97.2036 81.6845 96.1011 81.8779C95.8356 81.9229 95.5882 81.9454 95.3542 81.9454C94.6117 81.9454 94.0132 81.7114 93.5678 81.248C92.9828 80.6405 92.6858 79.6775 92.6858 78.3726V76.8022C91.1694 76.9957 89.6125 77.1757 88.0195 77.3377V78.8676C88.0195 81.446 88.708 83.3179 90.0804 84.4653C91.0659 85.2888 92.3843 85.7117 94.0222 85.7117C94.6657 85.7117 95.3542 85.6488 96.0966 85.5183C98.711 85.0548 100.709 83.9748 102.086 82.3369C103.463 80.699 104.151 78.5841 104.151 76.0237V74.9258C102.666 75.2318 101.114 75.5243 99.4985 75.7987H99.5075Z" fill="#D9F7FF"/>
<path d="M106.699 74.3723V80.771C106.699 81.4955 106.906 82.0174 107.325 82.3369C107.595 82.5439 107.923 82.6474 108.315 82.6474C108.531 82.6474 108.769 82.6159 109.026 82.5529C109.759 82.3684 110.335 82.0084 110.758 81.4775C111.181 80.9465 111.397 80.3165 111.397 79.5921V75.2048C112.729 74.8538 114.061 74.4848 115.384 74.1023C117.346 73.5354 118.871 72.5499 119.974 71.173C120.563 70.435 120.991 69.6296 121.261 68.7656C118.507 70.894 113.44 72.8109 106.699 74.3768V74.3723Z" fill="#D9F7FF"/>
<path d="M75.8213 78.2781V85.5768C75.8213 86.2832 76.0418 86.8322 76.4873 87.2192C76.8742 87.5567 77.3647 87.7277 77.9677 87.7277C78.0577 87.7277 78.1522 87.7277 78.2467 87.7142C78.9756 87.6557 79.5606 87.3902 80.0061 86.9312C80.4471 86.4677 80.672 85.8872 80.672 85.1808V77.9811C79.0836 78.0936 77.4682 78.1926 75.8258 78.2781H75.8213Z" fill="#D9F7FF"/>
<path d="M67.3035 82.8454C66.885 82.2694 66.462 81.8419 66.0345 81.5585C65.6071 81.275 65.1076 81.095 64.5316 81.014C65.9265 80.672 67.002 80.0015 67.7715 79.0251C67.8884 78.8766 67.9919 78.7236 68.0909 78.5661C65.9535 78.6156 63.7801 78.6426 61.5798 78.6426C58.8169 78.6426 56.099 78.6021 53.4307 78.5256V85.8332C53.4307 86.5532 53.6422 87.1382 54.0696 87.5792C54.4971 88.0156 55.0731 88.2541 55.8065 88.2766C55.847 88.2766 55.8875 88.2766 55.928 88.2766C56.603 88.2766 57.134 88.0786 57.53 87.6917C57.9484 87.2822 58.1554 86.7152 58.1554 85.9907V81.374C58.7224 81.3875 59.2894 81.3965 59.8518 81.401C60.2163 81.401 60.5358 81.491 60.8058 81.653C61.0758 81.8194 61.3323 82.0759 61.5753 82.4179C62.7092 84.0558 63.8386 85.6847 64.9726 87.3002C65.2336 87.6736 65.5486 87.9526 65.913 88.1371C66.2595 88.3081 66.6285 88.3936 67.02 88.3936C67.0425 88.3936 67.065 88.3936 67.0875 88.3936C67.695 88.3801 68.2304 88.1776 68.6939 87.7906C69.1529 87.4082 69.3869 86.9357 69.3869 86.3867C69.3869 85.9727 69.2294 85.5408 68.9189 85.0863C68.3789 84.3393 67.8389 83.5924 67.299 82.8409L67.3035 82.8454Z" fill="#D9F7FF"/>
<path d="M59.1408 105.673C56.9449 105.632 54.7536 105.56 52.5622 105.443V101.677C54.5826 101.78 56.5985 101.852 58.6189 101.893C58.6549 101.893 58.6864 101.893 58.7224 101.893C59.4198 101.893 59.9553 101.744 60.3198 101.456C60.7023 101.15 60.8957 100.705 60.8957 100.12C60.8957 100.102 60.8957 100.089 60.8957 100.071C56.324 99.985 51.9592 99.778 47.9004 99.4586V106.613C47.9004 107.32 48.0894 107.873 48.4719 108.283C48.8543 108.688 49.4033 108.917 50.1143 108.962C53.1246 109.156 56.135 109.277 59.1453 109.331C59.1723 109.331 59.2038 109.331 59.2308 109.331C59.9373 109.331 60.4728 109.183 60.8417 108.89C61.2242 108.584 61.4177 108.139 61.4177 107.554C61.4177 106.316 60.6618 105.695 59.1453 105.668L59.1408 105.673Z" fill="#FFC400"/>
<path d="M35.5889 98.0366V105.29C35.5889 105.997 35.8094 106.591 36.2503 107.072C36.6913 107.554 37.2763 107.842 38.0007 107.936C38.1447 107.954 38.2842 107.963 38.4192 107.963C38.9547 107.963 39.4002 107.815 39.7557 107.518C40.1966 107.149 40.4171 106.609 40.4171 105.907V98.7251C38.7207 98.5181 37.1098 98.2841 35.5889 98.0366Z" fill="#FFC400"/>
<path d="M79.0566 99.7331V106.465C79.0566 107.171 79.2636 107.72 79.6821 108.112C80.0421 108.449 80.4876 108.62 81.0275 108.62C81.113 108.62 81.203 108.62 81.2975 108.607C81.9725 108.539 82.5125 108.269 82.9129 107.797C83.3134 107.324 83.5114 106.735 83.5114 106.028V99.4226C82.067 99.5396 80.5821 99.6431 79.0611 99.7286L79.0566 99.7331Z" fill="#FFC400"/>
<path d="M90.9322 98.6666V99.4811C90.7117 99.2381 90.4912 98.9951 90.2662 98.7521C88.5383 98.9636 86.7204 99.1526 84.835 99.3191C87.0264 101.776 89.2132 104.206 91.3956 106.586C91.7061 106.946 92.1381 107.126 92.6871 107.126C92.8356 107.126 92.9931 107.113 93.1595 107.086C93.8165 106.982 94.3475 106.676 94.7615 106.177C95.1754 105.677 95.3824 105.074 95.3824 104.368V98.0276C93.9785 98.2571 92.4891 98.4731 90.9322 98.6711V98.6666Z" fill="#FFC400"/>
<path d="M75.0519 105.308C74.9484 105.308 74.8405 105.308 74.728 105.317C72.5366 105.457 70.3452 105.556 68.1493 105.619V101.852C70.1697 101.794 72.1856 101.704 74.206 101.582C74.953 101.537 75.5199 101.344 75.9024 101.006C76.2309 100.718 76.4064 100.336 76.4559 99.8635C72.9371 100.026 69.2517 100.111 65.4539 100.111C64.7925 100.111 64.131 100.111 63.4785 100.102V107.167C63.4785 107.873 63.672 108.413 64.0545 108.787C64.4235 109.151 64.9499 109.336 65.6339 109.336C65.6564 109.336 65.6789 109.336 65.7014 109.336C68.7118 109.286 71.7266 109.165 74.7325 108.976C75.4794 108.926 76.0464 108.733 76.4289 108.395C76.8114 108.058 77.0003 107.599 77.0003 107.014C77.0003 105.866 76.3524 105.304 75.0564 105.304L75.0519 105.308Z" fill="#FFC400"/>
</g>
</svg>
